<?xml version="1.0" encoding="UTF-8"?>

<svg width="800px" height="800px" fill="none" viewBox="0 0 24 24" xmlns="http://www.w3.org/2000/svg">
<path d="m17 17c-1.1046 0-2 0.8954-2 2s0.8954 2 2 2 2-0.8954 2-2-0.8954-2-2-2zm0 0h-7.706c-0.46107 0-0.69202 0-0.88184-0.082-0.16745-0.0724-0.31273-0.1889-0.41857-0.3375-0.11864-0.1665-0.16635-0.3892-0.2608-0.83l-2.4613-11.486c-0.09664-0.45102-0.14561-0.67627-0.26562-0.84473-0.10584-0.14857-0.25109-0.26551-0.41854-0.33787-0.18986-0.08205-0.41953-0.08205-0.88079-0.08205h-0.70653m3 3h12.873c0.7218 0 1.0823 0 1.3246 0.15036 0.2122 0.1317 0.3675 0.33826 0.4352 0.57864 0.0774 0.27443-0.022 0.62096-0.222 1.3145l-1.3846 4.8c-0.1196 0.4146-0.1795 0.6215-0.3008 0.7754-0.1071 0.1358-0.2484 0.2421-0.4086 0.3074-0.1809 0.0737-0.3959 0.0737-0.8249 0.0737h-9.7616m0.26953 7c-1.1046 0-2-0.8954-2-2s0.89543-2 2-2 2 0.8954 2 2-0.89543 2-2 2z" stroke="#f9a8d5" stroke-linecap="round" stroke-linejoin="round" stroke-width="2"/>
</svg>
